HIERARCHY
ROOT Torso
{
	OFFSET 0.000000 0.000000 0.000000
	CHANNELS 6 Xposition Yposition Zposition Zrotation Yrotation Xrotation
	JOINT LHip
	{
		OFFSET 0.000000 0.010000 -0.060000
		CHANNELS 6 Xposition Yposition Zposition Zrotation Yrotation Xrotation
		JOINT LeftThigh
		{
			OFFSET 0.055000 0.000000 -0.055000
			CHANNELS 6 Xposition Yposition Zposition Zrotation Yrotation Xrotation
			JOINT LeftLeg
			{
				OFFSET 0.000000 -0.015000 -0.120000
				CHANNELS 6 Xposition Yposition Zposition Zrotation Yrotation Xrotation
				JOINT LeftFoot
				{
					OFFSET 0.000000 0.010000 -0.100000
					CHANNELS 6 Xposition Yposition Zposition Zrotation Yrotation Xrotation
					End Site
					{
						OFFSET 0.000000 -0.090000 -0.035000
					}
				}
			}
		}
	}
	JOINT RHip
	{
		OFFSET 0.000000 0.010000 -0.060000
		CHANNELS 6 Xposition Yposition Zposition Zrotation Yrotation Xrotation
		JOINT RightThigh
		{
			OFFSET -0.055000 0.000000 -0.055000
			CHANNELS 6 Xposition Yposition Zposition Zrotation Yrotation Xrotation
			JOINT RightLeg
			{
				OFFSET 0.000000 -0.015000 -0.120000
				CHANNELS 6 Xposition Yposition Zposition Zrotation Yrotation Xrotation
				JOINT RightFoot
				{
					OFFSET 0.000000 0.010000 -0.100000
					CHANNELS 6 Xposition Yposition Zposition Zrotation Yrotation Xrotation
					End Site
					{
						OFFSET 0.000000 -0.090000 -0.035000
					}
				}
			}
		}
	}
	JOINT Neck
	{
		OFFSET 0.000000 -0.000000 0.040000
		CHANNELS 6 Xposition Yposition Zposition Zrotation Yrotation Xrotation
		JOINT Head
		{
			OFFSET 0.000000 -0.000000 0.100000
			CHANNELS 6 Xposition Yposition Zposition Zrotation Yrotation Xrotation
			End Site
			{
				OFFSET 0.000000 -0.000000 0.070000
			}
		}
	}
	JOINT LeftUpperarm
	{
		OFFSET 0.098000 -0.000000 0.075000
		CHANNELS 6 Xposition Yposition Zposition Zrotation Yrotation Xrotation
		JOINT LeftLowerarm
		{
			OFFSET 0.000000 -0.090000 0.009000
			CHANNELS 6 Xposition Yposition Zposition Zrotation Yrotation Xrotation
			End Site
			{
				OFFSET 0.000000 -0.105000 0.000000
			}
		}
	}
	JOINT RightUpperarm
	{
		OFFSET -0.098000 -0.000000 0.075000
		CHANNELS 6 Xposition Yposition Zposition Zrotation Yrotation Xrotation
		JOINT RightLowerarm
		{
			OFFSET 0.000000 -0.090000 0.009000
			CHANNELS 6 Xposition Yposition Zposition Zrotation Yrotation Xrotation
			End Site
			{
				OFFSET 0.000000 -0.105000 0.000000
			}
		}
	}
}
MOTION
Frames: 11
Frame Time: 0.041667
0.000000 0.000000 0.000000 -3.795454 -2.059177 10.415077 0.000001 0.010000 -0.060002 -31.114032 -5.747246 -0.893953 0.055000 -0.000000 -0.055000 -155.310483 -8.838976 31.602052 -0.000000 -0.015000 -0.119999 0.000068 0.000026 -36.078517 -0.000000 0.010000 -0.100000 -179.311085 25.192060 -15.356868 -0.000000 0.010000 -0.060000 34.670334 3.817250 0.180674 -0.055001 -0.000000 -0.055002 146.973991 3.875353 26.614286 0.000000 -0.015000 -0.120000 -0.000054 -0.000001 -78.971774 0.000000 0.010000 -0.100000 159.314067 -25.329840 6.813524 0.000000 0.000000 0.040002 1.658165 1.147722 -16.227565 0.000000 -0.000000 0.100000 -1.840305 0.581858 25.272858 0.097998 0.000000 0.075000 -19.740095 178.905754 -84.720970 0.000001 -0.089998 0.009001 -17.864759 3.203999 25.889456 -0.097998 0.000000 0.075000 19.242166 -174.603049 -79.895755 -0.000000 -0.090000 0.009000 14.541703 -1.805237 19.790038 
0.000000 0.000000 0.000000 -3.683353 -2.214021 10.293194 0.000000 0.010001 -0.060001 -31.114032 -5.747227 -0.893959 0.055000 -0.000000 -0.055000 -155.496660 -9.082711 30.905305 -0.000000 -0.015000 -0.119999 0.000049 0.000055 -35.876935 0.000000 0.010000 -0.100000 -179.357284 25.222205 -15.783278 0.000001 0.010000 -0.060001 34.670334 3.817248 0.180669 -0.055000 0.000000 -0.055001 146.484362 3.763922 28.193221 -0.000000 -0.015000 -0.120000 0.000006 -0.000073 -81.018078 -0.000001 0.010000 -0.100000 159.069860 -25.662771 5.513519 0.000000 -0.000000 0.040000 1.621063 0.779122 -16.444087 -0.000000 0.000001 0.100004 -1.060395 0.888224 25.127378 0.098002 0.000000 0.075000 -20.402229 178.816019 -84.879799 0.000000 -0.090000 0.009000 -17.998938 3.269330 26.140068 -0.098002 -0.000000 0.075000 19.020566 -174.553148 -79.938034 -0.000000 -0.090000 0.009000 14.362790 -1.741498 19.466683 
0.000000 0.000000 0.000000 -3.957594 -2.667033 10.096852 0.000000 0.010001 -0.059999 -31.114032 -5.747244 -0.893955 0.055001 -0.000001 -0.055001 -155.755743 -9.710196 30.082260 -0.000000 -0.015000 -0.120000 0.000093 0.000011 -35.802223 -0.000000 0.010000 -0.100000 -179.100496 25.292824 -16.358720 0.000000 0.010000 -0.059997 34.670334 3.817249 0.180668 -0.055000 0.000000 -0.055001 146.187167 3.119579 29.577362 -0.000000 -0.015000 -0.119999 -0.000007 -0.000009 -82.782098 0.000000 0.010001 -0.099999 159.655645 -26.152690 3.063330 0.000000 -0.000001 0.039998 1.678250 1.213498 -15.395040 0.000000 -0.000000 0.099998 -1.361965 0.933447 24.695379 0.098000 0.000000 0.075000 -20.645456 179.157105 -85.073032 0.000000 -0.090000 0.009000 -18.217969 3.377664 26.550149 -0.098000 0.000001 0.075001 19.389565 -174.275255 -80.504230 -0.000000 -0.090000 0.009000 14.425426 -1.763698 19.579926 
0.000000 0.000000 0.000000 -3.333528 -2.951706 9.983851 -0.000001 0.010000 -0.060002 -31.114029 -5.747226 -0.893956 0.055000 0.000000 -0.055000 -156.036792 -10.106823 29.542057 -0.000000 -0.015000 -0.120002 0.000040 0.000008 -35.681260 0.000000 0.010000 -0.100000 -179.590836 25.271379 -16.727775 0.000001 0.010000 -0.060001 34.670337 3.817238 0.180671 -0.055000 -0.000000 -0.054999 145.196503 2.873950 31.083211 -0.000000 -0.015001 -0.120000 0.000029 -0.000014 -84.346115 0.000000 0.010001 -0.100001 159.566292 -26.555921 1.173857 0.000000 0.000000 0.039998 0.628717 1.388778 -15.896550 -0.000000 -0.000001 0.099998 -1.340023 0.853042 25.577788 0.098000 0.000000 0.075000 -21.414426 179.119471 -85.062431 -0.000000 -0.090000 0.009001 -18.270006 3.403697 26.647590 -0.097998 0.000000 0.075000 18.618413 -174.235476 -80.694280 -0.000000 -0.090002 0.009000 14.396181 -1.753304 19.527130 
0.000000 0.000000 0.000000 -3.164569 -3.144208 9.821255 0.000001 0.010000 -0.059999 -31.114025 -5.747239 -0.893955 0.055000 -0.000000 -0.055000 -156.218120 -10.417372 28.810172 -0.000001 -0.015000 -0.120001 0.000083 -0.000007 -35.482191 0.000000 0.010000 -0.100000 -179.689464 25.290449 -17.127328 0.000000 0.009999 -0.060000 34.670334 3.817250 0.180672 -0.055000 0.000000 -0.055000 144.619857 2.689496 32.385981 -0.000000 -0.015000 -0.120000 -0.000059 -0.000042 -85.681329 0.000000 0.009999 -0.100000 160.460009 -26.846506 -0.770900 0.000000 0.000000 0.040000 0.522416 1.138471 -14.644151 0.000000 0.000001 0.100002 -1.105189 1.192649 24.341432 0.097998 -0.000000 0.075000 -21.781456 179.151245 -85.308134 -0.000000 -0.089996 0.009001 -18.371325 3.454639 26.837780 -0.097996 0.000000 0.075000 18.317645 -174.315785 -81.139458 -0.000000 -0.090000 0.009000 14.468236 -1.778927 19.657240 
0.000000 0.000000 0.000000 -3.276292 -3.492497 9.731807 0.000000 0.010000 -0.059999 -31.114042 -5.747226 -0.893959 0.055001 -0.000000 -0.055000 -156.217833 -10.968158 28.170004 -0.000000 -0.015000 -0.119999 0.000033 0.000030 -35.440554 0.000000 0.010000 -0.100000 -179.717017 25.319202 -17.582042 0.000000 0.010000 -0.060000 34.670344 3.817243 0.180669 -0.055000 -0.000000 -0.055000 144.234853 2.253797 33.719001 -0.000000 -0.015000 -0.120000 -0.000053 0.000006 -86.807572 0.000000 0.010000 -0.100000 160.830915 -27.065875 -2.167022 0.000000 -0.000000 0.040000 0.733005 0.847870 -14.609515 -0.000000 -0.000001 0.099998 -0.464343 1.990658 24.047419 0.097998 0.000000 0.075000 -22.024481 179.252181 -85.224362 -0.000000 -0.090002 0.008999 -18.394680 3.466382 26.881546 -0.098000 0.000000 0.075001 18.132352 -174.181859 -81.361869 -0.000000 -0.089998 0.009000 14.501181 -1.790741 19.716693 
0.000000 0.000000 0.000000 -3.179482 -3.876342 9.664665 0.000000 0.010000 -0.060000 -31.114032 -5.747233 -0.893958 0.055000 -0.000001 -0.055003 -156.238146 -11.535803 27.669807 -0.000000 -0.015000 -0.120000 0.000074 0.000004 -35.528086 -0.000000 0.010000 -0.100000 -180.048896 25.323807 -18.155102 0.000000 0.010000 -0.060000 34.670337 3.817251 0.180671 -0.055000 0.000000 -0.054999 143.753421 1.806173 35.109740 -0.000000 -0.015000 -0.120001 -0.000013 -0.000038 -87.708426 -0.000000 0.010000 -0.100000 161.322661 -27.185172 -3.125729 0.000000 -0.000000 0.040002 0.352427 0.401014 -14.975979 0.000000 -0.000000 0.100000 -0.463192 3.547667 25.246051 0.097998 -0.000000 0.075000 -22.529452 179.338337 -85.132898 -0.000000 -0.090000 0.008999 -18.449365 3.494177 26.984395 -0.097998 0.000000 0.075000 17.911732 -174.023958 -81.626587 -0.000000 -0.090000 0.009000 14.587681 -1.821837 19.873202 
0.000000 0.000000 0.000000 -3.086467 -4.010991 9.641206 -0.000001 0.010000 -0.059999 -31.114032 -5.747244 -0.893961 0.054999 0.000000 -0.055000 -156.301817 -11.761604 27.253416 0.000000 -0.015000 -0.120000 0.000044 -0.000014 -35.650736 0.000000 0.010000 -0.100000 -180.248706 25.334116 -18.641434 0.000001 0.010000 -0.059999 34.670334 3.817253 0.180667 -0.055000 -0.000000 -0.055000 143.423714 1.718590 36.584307 0.000000 -0.015000 -0.120001 0.000007 0.000041 -88.430814 0.000000 0.010000 -0.099999 160.631078 -27.022933 -1.818022 -0.000000 -0.000000 0.040000 -0.108134 0.415436 -15.276719 -0.000000 -0.000000 0.100002 -0.513761 3.755200 26.113570 0.098000 -0.000001 0.075000 -23.026709 179.122776 -85.005208 -0.000000 -0.090000 0.009001 -18.444016 3.491437 26.974314 -0.098000 0.000000 0.075000 17.667268 -174.017825 -81.708385 -0.000000 -0.089998 0.009000 14.619151 -1.833253 19.930214 
0.000000 0.000000 0.000000 -3.137069 -4.183543 9.572485 -0.000001 0.009999 -0.060001 -31.114032 -5.747249 -0.893960 0.054999 -0.000000 -0.054999 -156.345052 -12.060366 26.794888 -0.000000 -0.015000 -0.119999 0.000023 -0.000004 -35.853090 -0.000000 0.010000 -0.100000 -180.291504 25.358281 -19.122865 -0.000000 0.010000 -0.060000 34.670337 3.817243 0.180670 -0.055000 -0.000001 -0.055002 143.237987 1.559970 37.895221 -0.000000 -0.015000 -0.120000 -0.000082 -0.000031 -88.951268 0.000000 0.010000 -0.100001 161.922229 -27.258477 -3.910569 0.000001 0.000000 0.040002 -0.085680 0.534894 -14.807688 0.000000 -0.000001 0.099998 -0.228722 3.446215 25.556659 0.098000 0.000000 0.075000 -23.410890 178.998727 -84.996554 -0.000000 -0.089996 0.009002 -18.545943 3.543466 27.165875 -0.098000 0.000000 0.075000 17.360893 -174.048083 -81.901727 -0.000000 -0.090000 0.009000 14.682164 -1.856096 20.044165 
0.000000 0.000000 0.000000 -2.934778 -4.379670 9.457714 0.000000 0.010000 -0.060000 -31.114029 -5.747236 -0.893960 0.055000 -0.000000 -0.055000 -156.396169 -12.388262 26.330357 -0.000000 -0.015000 -0.119999 0.000004 0.000047 -36.142421 0.000001 0.010000 -0.100000 -180.549384 25.355846 -19.538861 0.000001 0.010000 -0.060001 34.670334 3.817261 0.180674 -0.055000 -0.000000 -0.055001 142.820867 1.389641 39.035241 -0.000000 -0.015000 -0.120000 -0.000010 -0.000030 -89.245895 0.000000 0.010000 -0.100000 162.877964 -27.403643 -5.397124 -0.000000 -0.000000 0.039998 -0.342340 0.628221 -14.392042 0.000000 -0.000000 0.100002 0.055581 3.126319 24.872265 0.097998 -0.000001 0.075000 -23.916215 179.012442 -85.132024 0.000001 -0.090000 0.009000 -18.833195 3.692317 27.707313 -0.098000 0.000000 0.075000 16.690595 -174.144798 -82.081238 -0.000000 -0.089998 0.009000 14.807259 -1.902069 20.270705 
0.000000 0.000000 0.000000 -2.639750 -4.418024 9.430393 0.000001 0.010001 -0.060002 -31.114032 -5.747242 -0.893950 0.055000 -0.000000 -0.055001 -156.520205 -12.494105 26.012388 -0.000000 -0.015000 -0.120000 0.000061 -0.000009 -36.471014 -0.000000 0.010000 -0.100000 -180.996311 25.345702 -20.198276 0.000000 0.010000 -0.059999 34.670334 3.817245 0.180671 -0.055000 -0.000000 -0.055002 142.442202 1.441176 40.298150 -0.000000 -0.015000 -0.119999 -0.000044 0.000009 -89.351613 -0.000001 0.010000 -0.100000 164.000164 -27.569227 -7.244830 0.000000 0.000001 0.040000 -0.998361 0.404419 -14.366273 0.000001 0.000001 0.100002 -0.029691 3.660111 25.466434 0.098000 -0.000000 0.075001 -24.503980 178.962048 -85.433919 0.000000 -0.089996 0.009000 -19.214444 3.895170 28.428815 -0.097998 0.000000 0.075000 16.175807 -174.404209 -82.219638 0.000000 -0.090000 0.009000 15.116358 -2.017886 20.831611 
